<svg width="24" height="24" viewBox="0 0 24 24" fill="none" xmlns="http://www.w3.org/2000/svg">
<path fill-rule="evenodd" clip-rule="evenodd" d="M10.9895 7.99994C10.9895 9.65994 9.65945 10.9999 7.99945 10.9999C6.33945 10.9999 4.99945 9.65994 4.99945 7.99994C4.99945 6.33994 6.33945 4.99994 7.99945 4.99994C9.65945 4.99994 10.9895 6.33994 10.9895 7.99994ZM18.9898 7.99994C18.9898 9.65994 17.6598 10.9999 15.9998 10.9999C14.3398 10.9999 12.9998 9.65994 12.9998 7.99994C12.9998 6.33994 14.3398 4.99994 15.9998 4.99994C17.6598 4.99994 18.9898 6.33994 18.9898 7.99994ZM7.99976 12.9999C5.66976 12.9999 0.999756 14.1699 0.999756 16.4999V17.9999C0.999756 18.5499 1.44976 18.9999 1.99976 18.9999H13.9998C14.5498 18.9999 14.9998 18.5499 14.9998 17.9999V16.4999C14.9998 14.1699 10.3298 12.9999 7.99976 12.9999ZM15.0298 13.0499C15.3798 13.0199 15.7098 12.9999 15.9998 12.9999C18.3298 12.9999 22.9998 14.1699 22.9998 16.4999V17.9999C22.9998 18.5499 22.5498 18.9999 21.9998 18.9999H16.8198C16.9298 18.6899 16.9998 18.3499 16.9998 17.9999V16.4999C16.9998 15.0299 16.2098 13.9199 15.0698 13.0899C15.0668 13.0869 15.0638 13.0829 15.0605 13.0786C15.0529 13.0687 15.0438 13.0569 15.0298 13.0499Z" fill="#828CA0"/>
</svg>
