<svg width="20" height="20" viewBox="0 0 20 20" fill="none" xmlns="http://www.w3.org/2000/svg">
<g clip-path="url(#clip0_201_19819)">
<path d="M13.8225 6.18354C13.5859 5.94691 13.2036 5.94691 12.967 6.18354L10 9.14448L7.03299 6.17747C6.79636 5.94084 6.41411 5.94084 6.17747 6.17747C5.94084 6.41411 5.94084 6.79636 6.17747 7.03299L9.14448 10L6.17747 12.967C5.94084 13.2036 5.94084 13.5859 6.17747 13.8225C6.41411 14.0592 6.79636 14.0592 7.03299 13.8225L10 10.8555L12.967 13.8225C13.2036 14.0592 13.5859 14.0592 13.8225 13.8225C14.0592 13.5859 14.0592 13.2036 13.8225 12.967L10.8555 10L13.8225 7.03299C14.0531 6.80243 14.0531 6.41411 13.8225 6.18354Z" fill="#828CA0"/>
</g>
<defs>
<clipPath id="clip0_201_19819">
<rect width="20" height="20" fill="white"/>
</clipPath>
</defs>
</svg>
