<svg width="10" height="11" viewBox="0 0 10 11" fill="none" xmlns="http://www.w3.org/2000/svg">
<path d="M8.5 0.619629L4.96667 4.15296L1.43333 0.619629C1.1 0.286296 0.583333 0.286296 0.25 0.619629C-0.0833333 0.952962 -0.0833333 1.46963 0.25 1.80296L3.78333 5.3363L0.25 8.86963C-0.0833333 9.20296 -0.0833333 9.71963 0.25 10.053C0.583333 10.3863 1.1 10.3863 1.43333 10.053L4.96667 6.51963L8.5 10.053C8.83333 10.3863 9.35 10.3863 9.68333 10.053C10.0167 9.71963 10.0167 9.20296 9.68333 8.86963L6.15 5.3363L9.68333 1.80296C10.0167 1.46963 10.0167 0.952962 9.68333 0.619629C9.35 0.302962 8.83333 0.302962 8.5 0.619629Z" fill="#6941C6"/>
</svg>
