<svg width="16" height="16" viewBox="0 0 16 16" fill="none" xmlns="http://www.w3.org/2000/svg">
<g clip-path="url(#clip0_565_43322)">
<path d="M9.24701 11.6055C9.22151 11.373 9.36701 10.2277 9.36701 10.2277C9.36701 10.2277 9.66026 10.2753 9.94302 10.3053C10.2254 10.3353 10.6803 10.3597 10.6803 10.3597C10.6803 10.3597 10.435 11.2188 10.5775 11.415C10.9064 11.8683 12.7056 12.9877 13.1181 13.437C13.3255 13.6368 13.5359 13.8307 13.7935 14.0055C13.9754 14.1555 14.563 14.1723 14.7175 14.3223C14.821 14.4307 14.9474 14.7461 14.884 14.8031C14.8405 14.8421 13.9503 14.8612 13.7935 14.8338C13.6236 14.8338 13.42 14.6752 13.42 14.6752C13.42 14.6752 13.2936 14.8031 13.1181 14.7127C12.8088 14.5635 12.8549 14.2552 12.6741 14.0055C12.571 13.9053 11.059 12.9423 10.0848 12.4098C9.24889 11.9531 9.28601 11.9598 9.24701 11.6055ZM3.235 8.64108C3.05388 8.48508 2.38488 9.04008 2.19325 8.99996C2.002 8.95983 2.1895 8.50121 2.01963 8.52933C1.78975 8.56721 1.72863 9.08808 1.522 9.12896C1.18938 9.25008 1 8.76708 1 8.19033C1 7.61358 1.2115 6.98583 1.93263 6.58383C2.65338 6.18145 3.721 6.07908 4.54938 6.34833C5.33538 5.9407 6.36963 4.75758 8.67289 4.70208C10.9761 4.64695 11.8383 5.76183 12.328 5.4952C12.8174 5.2282 12.9831 4.62633 12.8766 4.1767C12.6726 3.31532 12.277 2.84695 11.9601 2.08007C11.7614 1.59895 11.7505 0.96332 12.0014 0.497194C12.1131 0.290569 12.3861 0.0490683 12.7975 0.00406827C13.2093 -0.0405568 13.3176 0.294694 13.6056 0.385819C13.8936 0.477319 14.5094 0.533569 14.5574 0.746194C14.6054 0.95882 13.8666 1.12607 13.6994 1.10845C13.3071 1.06795 13.0596 1.3237 13.0806 1.7752C13.1061 2.3497 13.2456 2.55445 13.792 3.37232C14.3384 4.18983 14.3335 5.5492 13.6356 6.49758C13.4155 6.77508 13.1811 7.0102 13.0259 7.32708C12.9006 7.58096 13.0259 7.06945 13.0259 8.08233C13.0259 9.09558 12.4986 9.58308 11.8098 9.79721C10.8824 10.0856 10.0814 9.97758 9.26239 9.88421C8.12876 9.75483 7.24189 9.76983 6.77913 9.88421C6.37788 9.98358 5.12238 10.6698 4.96788 10.9893C4.88613 11.1618 4.44288 12.9562 4.36151 13.3503C4.32851 13.5123 4.34726 13.8352 4.26963 13.9792C4.18488 14.139 3.15175 14.7701 2.80075 14.8995C2.6395 14.9595 2.31325 15.036 2.27425 14.9812C2.0455 14.7262 2.04625 14.6673 2.71075 14.2027C2.47863 13.7366 3.148 13.6226 3.34488 13.3927C3.55975 13.1426 3.94938 10.4197 4.08288 10.065C4.21676 9.71021 4.73801 9.58833 4.94951 9.27296C4.84938 9.16083 4.71101 9.22046 4.34463 9.32021C4.03038 9.40571 3.37413 9.63221 3.23463 9.51896C3.0955 9.40571 3.41613 8.79671 3.23463 8.64071L3.235 8.64108Z" fill="#828CA0"/>
</g>
<defs>
<clipPath id="clip0_565_43322">
<rect width="16" height="16" fill="white"/>
</clipPath>
</defs>
</svg>
