<svg width="32" height="32" viewBox="0 0 32 32" fill="none" xmlns="http://www.w3.org/2000/svg">
<rect x="0.5" y="0.5" width="31" height="31" rx="3.5" fill="white"/>
<g clip-path="url(#clip0_896_3977)">
<path d="M21.25 10.7583C20.925 10.4333 20.4 10.4333 20.075 10.7583L16 14.825L11.925 10.75C11.6 10.425 11.075 10.425 10.75 10.75C10.425 11.075 10.425 11.6 10.75 11.925L14.825 16L10.75 20.075C10.425 20.4 10.425 20.925 10.75 21.25C11.075 21.575 11.6 21.575 11.925 21.25L16 17.175L20.075 21.25C20.4 21.575 20.925 21.575 21.25 21.25C21.575 20.925 21.575 20.4 21.25 20.075L17.175 16L21.25 11.925C21.5667 11.6083 21.5667 11.075 21.25 10.7583Z" fill="#7B59CE"/>
</g>
<rect x="0.5" y="0.5" width="31" height="31" rx="3.5" stroke="#7B59CE"/>
<defs>
<clipPath id="clip0_896_3977">
<rect width="20" height="20" fill="white" transform="translate(6 6)"/>
</clipPath>
</defs>
</svg>
