<svg width="60" height="32" viewBox="0 0 60 32" fill="none" xmlns="http://www.w3.org/2000/svg">
<path d="M6.63837 0.200195C8.74993 0.200195 10.4186 0.758425 11.6442 1.87488C12.8699 2.99134 13.4828 4.55075 13.4828 6.55309C13.4828 8.56758 12.8699 10.1391 11.6442 11.2677C10.4186 12.3842 8.74993 12.9424 6.63837 12.9424H1.0682V0.200195H6.63837ZM4.65422 2.96707V10.1573H6.56556C7.5728 10.1573 8.37373 9.84786 8.96837 9.22896C9.57514 8.61005 9.87853 7.7181 9.87853 6.55309C9.87853 5.41236 9.57514 4.53254 8.96837 3.91364C8.37373 3.2826 7.5728 2.96707 6.56556 2.96707H4.65422Z" fill="white"/>
<path d="M15.9837 4.842C16.9181 3.99252 18.1863 3.56778 19.7882 3.56778C21.4022 3.56778 22.6764 3.99859 23.6108 4.8602C24.5574 5.70968 25.0307 6.88682 25.0307 8.39161C25.0307 9.88427 24.5574 11.0614 23.6108 11.923C22.6764 12.7725 21.4022 13.1972 19.7882 13.1972C18.1863 13.1972 16.9121 12.7725 15.9655 11.923C15.0311 11.0614 14.5638 9.88427 14.5638 8.39161C14.5638 6.88682 15.0371 5.70361 15.9837 4.842ZM17.7494 8.39161C17.7494 9.16828 17.9375 9.79325 18.3137 10.2665C18.6899 10.7398 19.1814 10.9765 19.7882 10.9765C20.4192 10.9765 20.9167 10.7459 21.2808 10.2847C21.657 9.81146 21.8451 9.18041 21.8451 8.39161C21.8451 7.59067 21.657 6.95963 21.2808 6.49848C20.9167 6.0252 20.4192 5.78856 19.7882 5.78856C19.1692 5.78856 18.6717 6.0252 18.2955 6.49848C17.9314 6.95963 17.7494 7.59067 17.7494 8.39161Z" fill="white"/>
<path d="M26.0106 10.2301C27.3455 10.9097 28.6926 11.2495 30.0517 11.2495C30.5736 11.2495 31.0104 11.1828 31.3624 11.0493C31.7143 10.9036 31.8903 10.7155 31.8903 10.485C31.8903 10.3636 31.8417 10.2544 31.7446 10.1573C31.6475 10.0481 31.4837 9.94495 31.2531 9.84786C31.0347 9.75078 30.8405 9.67797 30.6706 9.62943C30.5008 9.56875 30.2398 9.48987 29.8879 9.39279C29.5481 9.28357 29.2993 9.20469 29.1416 9.15614C28.6926 9.01052 28.3042 8.86489 27.9766 8.71927C27.6611 8.57364 27.3395 8.39161 27.0118 8.17317C26.6963 7.95474 26.4536 7.69382 26.2837 7.39044C26.1138 7.08705 26.0288 6.74119 26.0288 6.35286C26.0288 5.49124 26.4475 4.81166 27.2849 4.31411C28.1343 3.81655 29.1962 3.56778 30.4704 3.56778C31.8174 3.56778 33.0492 3.73767 34.1657 4.07747L34.1292 6.20723C33.753 6.03734 33.2434 5.87958 32.6002 5.73395C31.9691 5.57619 31.3745 5.49731 30.8163 5.49731C30.3187 5.49731 29.894 5.56406 29.5421 5.69755C29.2023 5.8189 29.0324 5.9888 29.0324 6.20723C29.0324 6.28005 29.0506 6.35286 29.087 6.42567C29.1355 6.48635 29.2083 6.54703 29.3054 6.6077C29.4025 6.65625 29.4996 6.70479 29.5967 6.75333C29.6937 6.80187 29.8212 6.85041 29.9789 6.89895C30.1488 6.9475 30.3005 6.98997 30.434 7.02638L30.9437 7.172C31.15 7.23268 31.3199 7.28122 31.4534 7.31763C31.8296 7.42684 32.1572 7.53606 32.4364 7.64528C32.7276 7.74237 33.0371 7.88192 33.3647 8.06396C33.6924 8.23385 33.9593 8.41588 34.1657 8.61005C34.3841 8.80422 34.5601 9.04692 34.6935 9.33818C34.8392 9.62943 34.912 9.94495 34.912 10.2847C34.912 11.1464 34.5115 11.8502 33.7106 12.3963C32.9096 12.9303 31.8114 13.1972 30.4158 13.1972C29.6149 13.1972 28.7715 13.1123 27.8856 12.9424C26.9997 12.7846 26.3322 12.6026 25.8832 12.3963L26.0106 10.2301Z" fill="white"/>
<path d="M35.1981 4.04106L38.4929 0.764493H40.113V3.82262H42.9345V5.9888H40.113V9.59302C40.113 9.94495 40.2222 10.2362 40.4406 10.4668C40.6712 10.6852 41.0413 10.7944 41.551 10.7944C41.9029 10.7944 42.358 10.7155 42.9162 10.5578L43.0801 12.724C42.3155 13.0395 41.46 13.1972 40.5134 13.1972C39.3363 13.1972 38.4322 12.9485 37.8012 12.4509C37.1701 11.9534 36.8546 11.2131 36.8546 10.2301V5.9888H35.1981V4.04106Z" fill="white"/>
<path d="M44.699 7.90013C45.3422 7.36617 46.2342 7.09919 47.3749 7.09919C48.6127 7.09919 49.5957 7.41471 50.3238 8.04575V7.35403C50.3238 6.91716 50.0811 6.54096 49.5957 6.22544C49.1102 5.90992 48.4671 5.75216 47.6661 5.75216C46.6589 5.75216 45.6516 5.97666 44.6444 6.42567L44.6626 4.22309C45.8155 3.78622 47.0351 3.56778 48.3214 3.56778C49.3044 3.56778 50.1721 3.677 50.9245 3.89543C51.689 4.11387 52.3201 4.49007 52.8176 5.02403C53.3152 5.55799 53.564 6.2315 53.564 7.04458V12.9424H50.7789C50.5847 12.5419 50.4634 12.2507 50.4148 12.0686C49.7474 12.821 48.7341 13.1972 47.3749 13.1972C46.2463 13.1972 45.3543 12.9242 44.699 12.3781C44.0437 11.832 43.716 11.0917 43.716 10.1573C43.716 9.19862 44.0437 8.44622 44.699 7.90013ZM47.4113 11.0311C47.7025 11.2738 48.1091 11.3951 48.6309 11.3951C49.4318 11.3951 49.9961 11.1221 50.3238 10.576V9.35638C49.9719 8.9195 49.4197 8.70106 48.6673 8.70106C48.1212 8.70106 47.7025 8.82242 47.4113 9.06513C47.12 9.2957 46.9744 9.61729 46.9744 10.0299C46.9744 10.4546 47.12 10.7884 47.4113 11.0311Z" fill="white"/>
<path d="M2.36063 19.8778C3.59844 18.7249 5.22459 18.1485 7.23907 18.1485C9.25355 18.1485 10.8797 18.731 12.1175 19.896C13.3553 21.0489 13.9742 22.6689 13.9742 24.7562C13.9742 26.8435 13.3553 28.4697 12.1175 29.6347C10.8797 30.8118 9.25355 31.4004 7.23907 31.4004C5.22459 31.4004 3.59844 30.8179 2.36063 29.6529C1.12281 28.4757 0.503906 26.8435 0.503906 24.7562C0.503906 22.6689 1.12281 21.0428 2.36063 19.8778ZM4.16274 24.7562C4.16274 26.0062 4.43579 26.9528 4.98188 27.5959C5.52798 28.2391 6.28037 28.5607 7.23907 28.5607C8.18564 28.5607 8.93196 28.2391 9.47806 27.5959C10.0363 26.9406 10.3154 25.9941 10.3154 24.7562C10.3154 23.5306 10.0363 22.5961 9.47806 21.953C8.93196 21.3098 8.18564 20.9882 7.23907 20.9882C6.28037 20.9882 5.52798 21.3098 4.98188 21.953C4.43579 22.5961 4.16274 23.5306 4.16274 24.7562Z" fill="white"/>
<path d="M15.5535 22.0258H18.6116C18.7087 22.3534 18.7755 22.766 18.8119 23.2636C19.5643 22.2685 20.6625 21.7709 22.1066 21.7709C23.2716 21.7709 24.1697 22.1046 24.8007 22.7721C25.4439 23.4395 25.7655 24.374 25.7655 25.5754V31.1455H22.5071V25.9212C22.5071 25.363 22.3615 24.9201 22.0702 24.5924C21.779 24.2648 21.3664 24.1009 20.8324 24.1009C19.9587 24.1009 19.2851 24.5317 18.8119 25.3934V31.1455H15.5535V22.0258Z" fill="white"/>
<path d="M27.5171 31.1455V18.1303H30.7755V31.1455H27.5171Z" fill="white"/>
<path d="M36.0906 22.0258V31.1455H32.8323V22.0258H36.0906ZM33.1053 18.2395C33.4572 17.9604 33.9123 17.8208 34.4706 17.8208C35.0288 17.8208 35.4839 17.9665 35.8358 18.2577C36.1877 18.5368 36.3637 18.8948 36.3637 19.3317C36.3637 19.7686 36.1877 20.1326 35.8358 20.4239C35.4839 20.7151 35.0288 20.8608 34.4706 20.8608C33.9123 20.8608 33.4572 20.7151 33.1053 20.4239C32.7534 20.1326 32.5774 19.7686 32.5774 19.3317C32.5774 18.8948 32.7534 18.5308 33.1053 18.2395Z" fill="white"/>
<path d="M38.1474 22.0258H41.2056C41.3027 22.3534 41.3694 22.766 41.4058 23.2636C42.1582 22.2685 43.2565 21.7709 44.7006 21.7709C45.8656 21.7709 46.7636 22.1046 47.3947 22.7721C48.0378 23.4395 48.3594 24.374 48.3594 25.5754V31.1455H45.1011V25.9212C45.1011 25.363 44.9554 24.9201 44.6642 24.5924C44.3729 24.2648 43.9603 24.1009 43.4264 24.1009C42.5526 24.1009 41.8791 24.5317 41.4058 25.3934V31.1455H38.1474V22.0258Z" fill="white"/>
<path d="M51.0915 23.0451C52.0137 22.1835 53.2394 21.7527 54.7685 21.7527C56.2976 21.7527 57.499 22.1835 58.3727 23.0451C59.2465 23.8946 59.6833 25.0111 59.6833 26.3945C59.6833 26.7222 59.653 27.0256 59.5923 27.3047H52.839C52.9239 27.9115 53.2273 28.3787 53.7491 28.7063C54.2831 29.034 54.9687 29.1978 55.8061 29.1978C56.9832 29.1978 58.039 28.9248 58.9734 28.3787L59.1008 30.6177C58.0815 31.1395 56.7951 31.4004 55.2418 31.4004C53.4943 31.4004 52.1351 30.9696 51.1643 30.108C50.1934 29.2342 49.708 28.051 49.708 26.5584C49.708 25.0778 50.1692 23.9068 51.0915 23.0451ZM52.8208 25.9576H56.7162C56.7041 25.3266 56.516 24.823 56.1519 24.4468C55.7879 24.0706 55.3328 23.8825 54.7867 23.8825C54.2649 23.8825 53.8219 24.0585 53.4579 24.4104C53.1059 24.7623 52.8936 25.2781 52.8208 25.9576Z" fill="white"/>
</svg>
