<svg width="29" height="29" viewBox="0 0 29 29" fill="none" xmlns="http://www.w3.org/2000/svg">
<path d="M21.1334 18.3363H19.8168L19.3501 17.8863C21.3501 15.5529 22.3834 12.3696 21.8168 8.98627C21.0334 4.35293 17.1668 0.6696 12.5168 0.0862663C6.2001 -0.697067 0.800098 3.9696 0.350098 10.0029H3.71676C4.11676 6.4696 6.91676 3.6696 10.4834 3.3696C14.7168 3.00293 18.6334 6.58627 18.6334 10.8363C18.6334 14.9863 15.2834 18.3363 11.1334 18.3363C10.8501 18.3363 10.5834 18.2863 10.3001 18.2529V21.6196C10.3001 21.6196 10.3001 21.6196 10.3168 21.6363C13.3168 21.8529 16.1001 20.8529 18.1834 19.0529L18.6334 19.5196V20.8363L25.7168 27.9196C26.4001 28.6029 27.5168 28.6029 28.2001 27.9196C28.8834 27.2363 28.8834 26.1196 28.2001 25.4363L21.1334 18.3363Z" fill="#6941C6"/>
</svg>
