<svg width="20" height="20" viewBox="0 0 20 20" fill="none" xmlns="http://www.w3.org/2000/svg">
<g clip-path="url(#clip0_930_15021)">
<path d="M14.7083 5.29167C13.35 3.93334 11.425 3.15 9.30834 3.36667C6.25001 3.675 3.73334 6.15834 3.39167 9.21667C2.93334 13.2583 6.05834 16.6667 10 16.6667C12.6583 16.6667 14.9417 15.1083 16.0083 12.8667C16.275 12.3083 15.875 11.6667 15.2583 11.6667C14.95 11.6667 14.6583 11.8333 14.525 12.1083C13.5833 14.1333 11.325 15.4167 8.85834 14.8667C7.00834 14.4583 5.51667 12.95 5.12501 11.1C4.42501 7.86667 6.88334 5 10 5C11.3833 5 12.6167 5.575 13.5167 6.48334L12.2583 7.74167C11.7333 8.26667 12.1 9.16667 12.8417 9.16667H15.8333C16.2917 9.16667 16.6667 8.79167 16.6667 8.33334V5.34167C16.6667 4.6 15.7667 4.225 15.2417 4.75L14.7083 5.29167Z" fill="#7B59CE"/>
</g>
<defs>
<clipPath id="clip0_930_15021">
<rect width="20" height="20" fill="white"/>
</clipPath>
</defs>
</svg>
