<svg width="8" height="10" viewBox="0 0 8 10" fill="none" xmlns="http://www.w3.org/2000/svg">
<path d="M1.75 5.688H0.266V4.778H1.75V0.199999C2.142 0.199999 2.55733 0.195333 2.996 0.186C3.43467 0.176666 3.87333 0.172 4.312 0.172C6.72933 0.172 7.938 1.10067 7.938 2.958C7.938 3.798 7.63 4.46533 7.014 4.96C6.40733 5.44533 5.53933 5.688 4.41 5.688H2.94V7.158H5.362V8.068H2.94V10H1.75V8.068H0.266V7.158H1.75V5.688ZM4.424 1.292C4.256 1.292 3.76133 1.30133 2.94 1.32V4.778H4.368C5.908 4.778 6.678 4.19933 6.678 3.042C6.678 1.87533 5.92667 1.292 4.424 1.292Z" fill="#828CA0"/>
</svg>
