<svg width="20" height="20" viewBox="0 0 20 20" fill="none" xmlns="http://www.w3.org/2000/svg">
<g clip-path="url(#clip0_930_15026)">
<path d="M15 10.8333H10.8334V15C10.8334 15.4583 10.4584 15.8333 10 15.8333C9.54169 15.8333 9.16669 15.4583 9.16669 15V10.8333H5.00002C4.54169 10.8333 4.16669 10.4583 4.16669 10C4.16669 9.54167 4.54169 9.16667 5.00002 9.16667H9.16669V5.00001C9.16669 4.54167 9.54169 4.16667 10 4.16667C10.4584 4.16667 10.8334 4.54167 10.8334 5.00001V9.16667H15C15.4584 9.16667 15.8334 9.54167 15.8334 10C15.8334 10.4583 15.4584 10.8333 15 10.8333Z" fill="#7B59CE"/>
</g>
<defs>
<clipPath id="clip0_930_15026">
<rect width="20" height="20" fill="white"/>
</clipPath>
</defs>
</svg>
