<svg width="16" height="16" viewBox="0 0 16 16" fill="none" xmlns="http://www.w3.org/2000/svg">
<path d="M5 0.666664C4.91467 0.666664 4.82932 0.69932 4.76432 0.76432C4.63432 0.89432 4.63432 1.10567 4.76432 1.23567L5.63802 2.10937C4.64607 2.83728 4 4.0085 4 5.33333H12C12 4.0085 11.3539 2.83728 10.362 2.10937L11.2357 1.23567C11.3657 1.10501 11.3657 0.894987 11.2357 0.76432C11.1057 0.63432 10.8943 0.63432 10.7643 0.76432L9.77604 1.7526C9.24041 1.48637 8.63879 1.33333 8 1.33333C7.36121 1.33333 6.75959 1.48637 6.22396 1.7526L5.23568 0.76432C5.17068 0.69932 5.08533 0.666664 5 0.666664ZM6 3.33333H6.66667V4H6V3.33333ZM9.33333 3.33333H10V4H9.33333V3.33333ZM2.66667 6C2.29867 6 2 6.29866 2 6.66666V10.6667C2 11.0347 2.29867 11.3333 2.66667 11.3333C3.03467 11.3333 3.33333 11.0347 3.33333 10.6667V6.66666C3.33333 6.29866 3.03467 6 2.66667 6ZM4 6V11.3333C4 11.7013 4.29867 12 4.66667 12H5.33333V14.3333C5.33333 14.8853 5.78133 15.3333 6.33333 15.3333C6.88533 15.3333 7.33333 14.8853 7.33333 14.3333V12H8.66667V14.3333C8.66667 14.8853 9.11467 15.3333 9.66667 15.3333C10.2187 15.3333 10.6667 14.8853 10.6667 14.3333V12H11.3333C11.7013 12 12 11.7013 12 11.3333V6H4ZM13.3333 6C12.9653 6 12.6667 6.29866 12.6667 6.66666V10.6667C12.6667 11.0347 12.9653 11.3333 13.3333 11.3333C13.7013 11.3333 14 11.0347 14 10.6667V6.66666C14 6.29866 13.7013 6 13.3333 6Z" fill="#828CA0"/>
</svg>
