<svg width="16" height="16" viewBox="0 0 16 16" fill="none" xmlns="http://www.w3.org/2000/svg">
<path d="M14.2488 11.12C13.9038 11.8863 13.7375 12.2288 13.2938 12.905C12.6725 13.85 11.7963 15.03 10.7138 15.0375C9.75001 15.0463 9.50126 14.4088 8.19251 14.42C6.88501 14.4263 6.61251 15.05 5.64751 15.04C4.56376 15.03 3.73501 13.9675 3.11376 13.0238C1.37626 10.3775 1.19251 7.275 2.26626 5.625C3.02626 4.455 4.22751 3.7675 5.35626 3.7675C6.50626 3.7675 7.22876 4.39875 8.17876 4.39875C9.10126 4.39875 9.66251 3.76625 10.9925 3.76625C11.9975 3.76625 13.06 4.31375 13.82 5.25875C11.335 6.62125 11.7388 10.17 14.2488 11.12ZM9.98251 2.71C10.4663 2.08875 10.8338 1.2125 10.7 0.32C9.91126 0.37375 8.98876 0.8775 8.45001 1.53C7.96126 2.125 7.55626 3.0075 7.71376 3.86125C8.57501 3.88875 9.46626 3.375 9.98251 2.71Z" fill="#828CA0"/>
</svg>
