<svg width="32" height="32" viewBox="0 0 32 32" fill="none" xmlns="http://www.w3.org/2000/svg">
<g clip-path="url(#clip0_1109_4282)">
<path d="M19.825 13.5H18.5V9.33333C18.5 8.875 18.125 8.5 17.6667 8.5H14.3333C13.875 8.5 13.5 8.875 13.5 9.33333V13.5H12.175C11.4333 13.5 11.0583 14.4 11.5833 14.925L15.4083 18.75C15.7333 19.075 16.2583 19.075 16.5833 18.75L20.4083 14.925C20.9333 14.4 20.5667 13.5 19.825 13.5ZM10.1667 21.8333C10.1667 22.2917 10.5417 22.6667 11 22.6667H21C21.4583 22.6667 21.8333 22.2917 21.8333 21.8333C21.8333 21.375 21.4583 21 21 21H11C10.5417 21 10.1667 21.375 10.1667 21.8333Z" fill="#7B59CE"/>
</g>
<defs>
<clipPath id="clip0_1109_4282">
<rect width="20" height="20" fill="white" transform="translate(6 6)"/>
</clipPath>
</defs>
</svg>
