<svg width="20" height="16" viewBox="0 0 20 16" fill="none" xmlns="http://www.w3.org/2000/svg">
<path d="M9.99992 3.41673C12.2999 3.41673 14.1666 5.2834 14.1666 7.5834C14.1666 8.0084 14.0833 8.41673 13.9666 8.80007L16.5166 11.3501C17.6749 10.3251 18.5916 9.04173 19.1666 7.57506C17.7249 3.92506 14.1666 1.3334 9.99992 1.3334C8.94159 1.3334 7.92492 1.50007 6.96659 1.8084L8.77492 3.61673C9.16659 3.50006 9.57492 3.41673 9.99992 3.41673ZM2.25825 0.633398C1.93325 0.958398 1.93325 1.4834 2.25825 1.8084L3.89992 3.45006C2.54992 4.52506 1.47492 5.94173 0.833252 7.5834C2.27492 11.2417 5.83325 13.8334 9.99992 13.8334C11.2666 13.8334 12.4749 13.5834 13.5916 13.1501L15.8583 15.4167C16.1833 15.7417 16.7083 15.7417 17.0333 15.4167C17.3583 15.0917 17.3583 14.5667 17.0333 14.2417L3.44159 0.633398C3.11659 0.308398 2.58325 0.308398 2.25825 0.633398ZM9.99992 11.7501C7.69992 11.7501 5.83325 9.8834 5.83325 7.5834C5.83325 6.94173 5.98325 6.3334 6.24159 5.80006L7.54992 7.1084C7.52492 7.2584 7.49992 7.41673 7.49992 7.5834C7.49992 8.96673 8.61659 10.0834 9.99992 10.0834C10.1666 10.0834 10.3166 10.0584 10.4749 10.0251L11.7833 11.3334C11.2416 11.6001 10.6416 11.7501 9.99992 11.7501ZM12.4749 7.3084C12.3499 6.14173 11.4333 5.2334 10.2749 5.1084L12.4749 7.3084Z" fill="#828CA0"/>
</svg>
