<svg width="16" height="16" viewBox="0 0 16 16" fill="none" xmlns="http://www.w3.org/2000/svg">
<g clip-path="url(#clip0_1259_8597)">
<path d="M13.3333 1.33333H2.66665C1.93331 1.33333 1.33998 1.93333 1.33998 2.66667L1.33331 14.6667L3.99998 12H13.3333C14.0666 12 14.6666 11.4 14.6666 10.6667V2.66667C14.6666 1.93333 14.0666 1.33333 13.3333 1.33333ZM4.66665 6H11.3333C11.7 6 12 6.3 12 6.66667C12 7.03333 11.7 7.33333 11.3333 7.33333H4.66665C4.29998 7.33333 3.99998 7.03333 3.99998 6.66667C3.99998 6.3 4.29998 6 4.66665 6ZM8.66665 9.33333H4.66665C4.29998 9.33333 3.99998 9.03333 3.99998 8.66667C3.99998 8.3 4.29998 8 4.66665 8H8.66665C9.03331 8 9.33331 8.3 9.33331 8.66667C9.33331 9.03333 9.03331 9.33333 8.66665 9.33333ZM11.3333 5.33333H4.66665C4.29998 5.33333 3.99998 5.03333 3.99998 4.66667C3.99998 4.3 4.29998 4 4.66665 4H11.3333C11.7 4 12 4.3 12 4.66667C12 5.03333 11.7 5.33333 11.3333 5.33333Z" fill="#009F81"/>
</g>
<defs>
<clipPath id="clip0_1259_8597">
<rect width="16" height="16" fill="white"/>
</clipPath>
</defs>
</svg>
