<svg width="20" height="16" viewBox="0 0 20 16" fill="none" xmlns="http://www.w3.org/2000/svg">
<g clip-path="url(#clip0_1147_7173)">
<path d="M14.1933 3.92667L7.52667 10.5933C7.26667 10.8533 6.84667 10.8533 6.58667 10.5933L4.7 8.70667C4.44 8.44667 4.44 8.02667 4.7 7.76667C4.96 7.50667 5.38 7.50667 5.64 7.76667L7.05333 9.18L13.2467 2.98667C13.5067 2.72667 13.9267 2.72667 14.1867 2.98667C14.4533 3.24667 14.4533 3.66667 14.1933 3.92667ZM10.5133 1.82667C9.38667 1.36667 8.10667 1.20667 6.77333 1.44667C4.06 1.93334 1.89333 4.12 1.43333 6.83334C0.673332 11.3333 4.42 15.1867 8.89333 14.6067C11.5333 14.2667 13.7467 12.3 14.44 9.73334C14.7067 8.75334 14.7333 7.80667 14.58 6.92C14.4933 6.38667 13.8333 6.18 13.4467 6.56C13.2933 6.71334 13.2267 6.94 13.2667 7.15334C13.4133 8.04 13.3467 8.98667 12.92 9.99334C12.1467 11.8 10.4667 13.1267 8.51333 13.3067C5.11333 13.62 2.29333 10.74 2.71333 7.32C3 4.96 4.9 3.04 7.25333 2.71334C8.40667 2.55334 9.5 2.77333 10.4333 3.25333C10.6933 3.38667 11.0067 3.34 11.2133 3.13333C11.5333 2.81333 11.4533 2.27333 11.0533 2.06667C10.8733 1.98667 10.6933 1.9 10.5133 1.82667Z" fill="white"/>
</g>
<defs>
<clipPath id="clip0_1147_7173">
<rect width="16" height="16" fill="white"/>
</clipPath>
</defs>
</svg>
