<svg width="20" height="20" viewBox="0 0 20 20" fill="none" xmlns="http://www.w3.org/2000/svg">
<g clip-path="url(#clip0_929_18247)">
<path d="M4.16667 4.16667H9.16667C9.625 4.16667 10 3.79167 10 3.33333C10 2.875 9.625 2.5 9.16667 2.5H4.16667C3.25 2.5 2.5 3.25 2.5 4.16667V15.8333C2.5 16.75 3.25 17.5 4.16667 17.5H9.16667C9.625 17.5 10 17.125 10 16.6667C10 16.2083 9.625 15.8333 9.16667 15.8333H4.16667V4.16667Z" fill="white"/>
<path d="M17.2083 9.70836L14.8833 7.38336C14.6167 7.11669 14.1667 7.30003 14.1667 7.67503V9.16669H8.33333C7.875 9.16669 7.5 9.54169 7.5 10C7.5 10.4584 7.875 10.8334 8.33333 10.8334H14.1667V12.325C14.1667 12.7 14.6167 12.8834 14.875 12.6167L17.2 10.2917C17.3667 10.1334 17.3667 9.86669 17.2083 9.70836Z" fill="white"/>
</g>
<defs>
<clipPath id="clip0_929_18247">
<rect width="20" height="20" fill="white"/>
</clipPath>
</defs>
</svg>
