<svg width="16" height="16" viewBox="0 0 16 16" fill="none" xmlns="http://www.w3.org/2000/svg">
<g clip-path="url(#clip0_1259_6462)">
<path d="M13.3333 1.33334H2.66665C1.93331 1.33334 1.33998 1.93334 1.33998 2.66668L1.33331 14.6667L3.99998 12H13.3333C14.0666 12 14.6666 11.4 14.6666 10.6667V2.66668C14.6666 1.93334 14.0666 1.33334 13.3333 1.33334ZM4.66665 6.00001H11.3333C11.7 6.00001 12 6.30001 12 6.66668C12 7.03334 11.7 7.33334 11.3333 7.33334H4.66665C4.29998 7.33334 3.99998 7.03334 3.99998 6.66668C3.99998 6.30001 4.29998 6.00001 4.66665 6.00001ZM8.66665 9.33334H4.66665C4.29998 9.33334 3.99998 9.03334 3.99998 8.66668C3.99998 8.30001 4.29998 8.00001 4.66665 8.00001H8.66665C9.03331 8.00001 9.33331 8.30001 9.33331 8.66668C9.33331 9.03334 9.03331 9.33334 8.66665 9.33334ZM11.3333 5.33334H4.66665C4.29998 5.33334 3.99998 5.03334 3.99998 4.66668C3.99998 4.30001 4.29998 4.00001 4.66665 4.00001H11.3333C11.7 4.00001 12 4.30001 12 4.66668C12 5.03334 11.7 5.33334 11.3333 5.33334Z" fill="#E31B53"/>
</g>
<defs>
<clipPath id="clip0_1259_6462">
<rect width="16" height="16" fill="white"/>
</clipPath>
</defs>
</svg>
