<svg width="16" height="16" viewBox="0 0 16 16" fill="none" xmlns="http://www.w3.org/2000/svg">
<path d="M14.3436 11.8029L14.2799 11.6109C14.129 11.1623 13.6343 10.6945 13.1799 10.5712L11.4979 10.1118C11.0418 9.98768 10.3912 10.1545 10.0574 10.4882L9.4487 11.097C7.23644 10.4992 5.50169 8.76437 4.90471 6.55254L5.51346 5.94378C5.84718 5.61006 6.01402 4.96028 5.88992 4.50416L5.43128 2.82137C5.30719 2.36609 4.83849 1.87141 4.39077 1.72215L4.19877 1.6576C3.75019 1.50834 3.11044 1.65929 2.77675 1.99298L1.86617 2.90439C1.7035 3.0662 1.59953 3.52903 1.59953 3.53072C1.56768 6.42171 2.70127 9.20705 4.74624 11.252C6.7862 13.292 9.5611 14.4239 12.4437 14.3996C12.4588 14.3996 12.935 14.2973 13.0977 14.1355L14.0083 13.2249C14.342 12.8912 14.4929 12.2515 14.3436 11.8029Z" fill="#828CA0"/>
</svg>
