<svg width="16" height="16" viewBox="0 0 16 16" fill="none" xmlns="http://www.w3.org/2000/svg">
<g clip-path="url(#clip0_565_43331)">
<rect width="16" height="1" rx="0.5" fill="#828CA0"/>
<rect y="14" width="16" height="1" rx="0.5" fill="#828CA0"/>
<path d="M1.48388 9.58129L2.53432 4H3.2286L3.43598 4.8656L2.3089 10.5641H1.55601L1.48388 9.58129ZM1.12321 4L1.97078 9.59482L1.82651 10.5641H0.996982L-0.179688 4H1.12321ZM4.19788 9.57227L5.04094 4H6.33933L5.17168 10.5641H4.33764L4.19788 9.57227ZM3.62984 4L4.68929 9.61285L4.60363 10.5641H3.85074L2.72817 4.85658L2.94006 4H3.62984Z" fill="#828CA0"/>
<path d="M10.8341 9.47309V10.5641H7.98036V9.47309H10.8341ZM8.39061 4V10.5641H7.06968V4H8.39061ZM10.4509 6.6599V7.71936H7.98036V6.6599H10.4509ZM10.8251 4V5.09552H7.98036V4H10.8251Z" fill="#828CA0"/>
<path d="M13.8186 7.70132H12.4751L12.4706 6.74556H13.6157C13.7961 6.74556 13.9434 6.71551 14.0576 6.6554C14.1748 6.59228 14.2604 6.50061 14.3145 6.38039C14.3716 6.25716 14.4002 6.10839 14.4002 5.93407C14.4002 5.73269 14.3746 5.5719 14.3236 5.45168C14.2725 5.32845 14.1898 5.23828 14.0756 5.18118C13.9614 5.12407 13.8126 5.09552 13.6293 5.09552H12.926V10.5641H11.605V4H13.6293C13.9569 4 14.2499 4.03607 14.5084 4.1082C14.7669 4.18033 14.9863 4.29003 15.1666 4.43731C15.3469 4.58458 15.4837 4.77092 15.5769 4.99634C15.673 5.22175 15.7211 5.48774 15.7211 5.79431C15.7211 6.06481 15.667 6.31427 15.5588 6.54269C15.4506 6.77111 15.2808 6.95745 15.0494 7.10172C14.821 7.24598 14.5219 7.32713 14.1522 7.34517L13.8186 7.70132ZM13.7735 10.5641H12.101L12.6284 9.47309H13.7735C13.9479 9.47309 14.0891 9.43552 14.1973 9.36038C14.3055 9.28524 14.3837 9.18456 14.4318 9.05833C14.4798 8.92909 14.5039 8.78182 14.5039 8.61651C14.5039 8.43017 14.4813 8.26787 14.4363 8.12961C14.3942 7.99136 14.3236 7.88617 14.2244 7.81403C14.1252 7.73889 13.9914 7.70132 13.8231 7.70132H12.687L12.6961 6.74556H14.0756L14.3867 7.12426C14.7383 7.11224 15.0193 7.17986 15.2297 7.32713C15.4401 7.4714 15.5904 7.66075 15.6806 7.89518C15.7737 8.12661 15.8203 8.37306 15.8203 8.63454C15.8203 9.05532 15.7407 9.40997 15.5814 9.69851C15.4251 9.98403 15.1952 10.2004 14.8916 10.3477C14.588 10.492 14.2154 10.5641 13.7735 10.5641Z" fill="#828CA0"/>
</g>
<defs>
<clipPath id="clip0_565_43331">
<rect width="16" height="16" fill="white"/>
</clipPath>
</defs>
</svg>
